<?xml version="1.0" encoding="UTF-8"?>
<!DOCTYPE svg PUBLIC "-//W3C//DTD SVG 1.1//EN" "http://www.w3.org/Graphics/SVG/1.1/DTD/svg11.dtd">
<!-- Creator: CorelDRAW 2021 (64-Bit) -->
<svg xmlns="http://www.w3.org/2000/svg" xml:space="preserve" width="0.593429in" height="0.676669in" version="1.1" style="shape-rendering:geometricPrecision; text-rendering:geometricPrecision; image-rendering:optimizeQuality; fill-rule:evenodd; clip-rule:evenodd"
viewBox="0 0 54.12 61.71"
 xmlns:xlink="http://www.w3.org/1999/xlink"
 xmlns:xodm="http://www.corel.com/coreldraw/odm/2003">
 <defs>
  <style type="text/css">
   <![CDATA[
    .str0 {stroke:#178E9E;stroke-width:0.27;stroke-miterlimit:2.61313}
    .fil2 {fill:none;fill-rule:nonzero}
    .fil1 {fill:#178E9E}
    .fil0 {fill:#178E9E;fill-rule:nonzero}
   ]]>
  </style>
 </defs>
 <g id="Layer_x0020_1">
  <metadata id="CorelCorpID_0Corel-Layer"/>
  <g id="_1750827847200">
   <g>
    <path class="fil0" d="M46.56 56.89l-38.83 0 0 -1.3 38.83 0 0.49 1.08 -0.49 0.22zm0.49 -0.22l-0.19 0.22 -0.29 0 0.49 -0.22zm-19.26 -56.5l-1.29 -0.17 1.29 -0 0.4 2.1 0.58 2.02 0.75 1.94 0.9 1.87 1.04 1.81 1.15 1.75 1.26 1.7 1.34 1.66 1.41 1.62 1.46 1.58 1.49 1.55 1.51 1.53 1.51 1.52 1.49 1.5 1.45 1.5 1.4 1.5 1.33 1.51 1.24 1.53 1.13 1.55 1.01 1.59 0.87 1.62 0.7 1.67 0.52 1.72 0.31 1.78 0.09 1.84 -0.16 1.9 -0.42 1.96 -0.69 2.02 -0.98 2.09 -1.28 2.16 -1.6 2.24 -1.94 2.33 -0.97 -0.87 1.88 -2.26 1.55 -2.16 1.22 -2.06 0.92 -1.97 0.64 -1.88 0.38 -1.8 0.14 -1.73 -0.08 -1.67 -0.29 -1.62 -0.48 -1.58 -0.65 -1.55 -0.81 -1.53 -0.96 -1.51 -1.09 -1.49 -1.2 -1.48 -1.3 -1.48 -1.38 -1.48 -1.44 -1.49 -1.48 -1.5 -1.51 -1.52 -1.52 -1.54 -1.51 -1.57 -1.48 -1.61 -1.44 -1.65 -1.37 -1.7 -1.29 -1.75 -1.2 -1.82 -1.08 -1.89 -0.94 -1.96 -0.79 -2.04 -0.61 -2.13 -0.42 -2.22 1.29 -0zm-20.06 55.41l0 1.3 -0.48 -0.21 -1.98 -2.29 -1.64 -2.21 -1.32 -2.14 -1 -2.07 -0.71 -2.01 -0.43 -1.95 -0.16 -1.9 0.08 -1.84 0.31 -1.79 0.52 -1.73 0.71 -1.68 0.87 -1.64 1.02 -1.6 1.15 -1.57 1.25 -1.55 1.34 -1.54 1.42 -1.53 1.47 -1.52 1.51 -1.53 1.52 -1.53 1.53 -1.55 1.51 -1.57 1.47 -1.59 1.42 -1.62 1.35 -1.66 1.26 -1.7 1.16 -1.75 1.03 -1.8 0.89 -1.85 0.74 -1.91 0.57 -1.98 0.38 -2.06 1.29 0.17 -0.4 2.18 -0.6 2.1 -0.78 2.02 -0.94 1.94 -1.08 1.87 -1.2 1.81 -1.3 1.75 -1.38 1.7 -1.45 1.66 -1.49 1.62 -1.52 1.58 -1.53 1.56 -1.53 1.53 -1.5 1.52 -1.46 1.51 -1.4 1.5 -1.32 1.5 -1.22 1.51 -1.1 1.51 -0.97 1.53 -0.82 1.54 -0.66 1.57 -0.48 1.59 -0.29 1.63 -0.08 1.67 0.15 1.73 0.39 1.79 0.66 1.87 0.94 1.95 1.25 2.04 1.58 2.13 1.92 2.22 -0.48 -0.21zm0 1.3l-0.29 0 -0.19 -0.21 0.48 0.21z"/>
   </g>
   <path class="fil1" d="M21.92 49.58l-14.91 0 1.96 -3.06 9.81 0 0 -3.22 -7.74 0 1.94 -3.04 8.94 0 0 3.04 0.84 0 2.87 -26.74 -0.71 0 0.54 -0.67c-0.46,-0.43 -0.75,-1.04 -0.75,-1.72 0,-1.18 0.88,-2.16 2.02,-2.32l0.1 -0.39 0.23 -0.9 0.23 0.9 0.1 0.39c1.14,0.16 2.02,1.14 2.02,2.32 0,0.68 -0.29,1.29 -0.75,1.72l0.54 0.67 -0.69 0 2.69 26.74 0.99 0 0 -3.04 8.94 0 1.94 3.04 -7.74 0 0 3.22 9.81 0 1.96 3.06 -14.91 0 0 -3.06 -10.28 0 0 3.06z"/>
   <rect class="fil1" x="7.88" y="57.95" width="38.36" height="3.75" rx="0.88" ry="0.88"/>
   <g>
    <path class="fil1" d="M24.3 47.14c0.69,0 1.24,0.56 1.24,1.24 0,0.69 -0.56,1.24 -1.24,1.24 -0.69,0 -1.24,-0.56 -1.24,-1.24 0,-0.69 0.56,-1.24 1.24,-1.24z"/>
    <path id="_1" class="fil2 str0" d="M24.3 47.14c0.69,0 1.24,0.56 1.24,1.24 0,0.69 -0.56,1.24 -1.24,1.24 -0.69,0 -1.24,-0.56 -1.24,-1.24 0,-0.69 0.56,-1.24 1.24,-1.24z"/>
   </g>
   <g>
    <path class="fil1" d="M29.76 47.14c0.69,0 1.24,0.56 1.24,1.24 0,0.69 -0.56,1.24 -1.24,1.24 -0.69,0 -1.24,-0.56 -1.24,-1.24 0,-0.69 0.56,-1.24 1.24,-1.24z"/>
    <path id="_1_0" class="fil2 str0" d="M29.76 47.14c0.69,0 1.24,0.56 1.24,1.24 0,0.69 -0.56,1.24 -1.24,1.24 -0.69,0 -1.24,-0.56 -1.24,-1.24 0,-0.69 0.56,-1.24 1.24,-1.24z"/>
   </g>
  </g>
 </g>
</svg>
