<?xml version="1.0" encoding="UTF-8"?>
<!DOCTYPE svg PUBLIC "-//W3C//DTD SVG 1.1//EN" "http://www.w3.org/Graphics/SVG/1.1/DTD/svg11.dtd">
<!-- Creator: CorelDRAW 2021 (64-Bit) -->
<svg xmlns="http://www.w3.org/2000/svg" xml:space="preserve" width="5.76145in" height="6.56966in" version="1.1" style="shape-rendering:geometricPrecision; text-rendering:geometricPrecision; image-rendering:optimizeQuality; fill-rule:evenodd; clip-rule:evenodd"
viewBox="0 0 5761.54 6569.76"
 xmlns:xlink="http://www.w3.org/1999/xlink"
 xmlns:xodm="http://www.corel.com/coreldraw/odm/2003">
 <defs>
  <style type="text/css">
   <![CDATA[
    .str0 {stroke:#178E9E;stroke-width:3;stroke-miterlimit:2.61313}
    .fil2 {fill:none;fill-rule:nonzero}
    .fil1 {fill:#178E9E}
    .fil0 {fill:#178E9E;fill-rule:nonzero}
   ]]>
  </style>
 </defs>
 <g id="Layer_x0020_1">
  <metadata id="CorelCorpID_0Corel-Layer"/>
  <g id="_1750829420192">
   <g>
    <path class="fil0" d="M4956.62 6056.91l-4134.27 0 0 -138.68 4134.27 0 51.82 115.41 -51.82 23.27zm51.82 -23.27l-20.69 23.27 -31.13 0 51.82 -23.27zm-2050.72 -6014.84l-137.47 -18.29 137.4 -0.5 42.41 223.54 61.91 214.61 79.72 206.58 95.81 199.26 110.19 192.62 122.84 186.59 133.71 181.17 142.79 176.34 150.03 172.1 155.45 168.46 159.02 165.44 160.73 163.05 160.6 161.3 158.6 160.22 154.76 159.81 149.06 160.11 141.5 161.13 132.05 162.9 120.71 165.46 107.42 168.81 92.11 172.95 74.69 177.82 55.1 183.34 33.3 189.3 9.35 195.52 -16.58 201.88 -44.26 208.37 -73.56 215.14 -104.39 222.38 -136.8 230.26 -170.87 238.89 -206.65 248.29 -103.65 -92.14 200.68 -241.11 164.52 -230 130.38 -219.43 98.32 -209.41 68.41 -200.06 40.69 -191.53 15.09 -184.04 -8.53 -177.71 -30.39 -172.55 -50.67 -168.44 -69.43 -165.18 -86.63 -162.59 -102.2 -160.56 -116.06 -159.04 -128.13 -158.05 -138.38 -157.56 -146.77 -157.64 -153.3 -158.29 -157.94 -159.53 -160.7 -161.41 -161.59 -163.92 -160.6 -167.1 -157.73 -170.94 -152.97 -175.49 -146.31 -180.72 -137.75 -186.67 -127.25 -193.33 -114.79 -200.7 -100.34 -208.74 -83.88 -217.43 -65.37 -226.68 -44.84 -236.36 137.4 -0.5zm-2135.38 5899.44l0 138.68 -50.9 -22.25 -211.14 -244.06 -174.69 -235.52 -139.98 -227.68 -106.96 -220.56 -75.54 -214.01 -45.68 -207.86 -17.46 -201.91 8.95 -196.01 33.32 -190.18 55.49 -184.54 75.39 -179.34 93.08 -174.71 108.62 -170.79 122.1 -167.6 133.61 -165.17 143.17 -163.46 150.81 -162.44 156.56 -162.1 160.4 -162.4 162.35 -163.32 162.39 -164.86 160.55 -166.98 156.81 -169.68 151.17 -172.93 143.66 -176.72 134.28 -181.05 123.05 -185.91 110.02 -191.3 95.19 -197.24 78.62 -203.79 60.34 -211 40.32 -219.04 137.47 18.29 -42.76 232.35 -63.87 223.44 -82.88 214.89 -99.81 206.87 -114.66 199.43 -127.49 192.64 -138.31 186.51 -147.16 181.05 -154.06 176.25 -159.03 172.09 -162.08 168.57 -163.2 165.68 -162.41 163.39 -159.7 161.69 -155.08 160.55 -148.53 159.97 -140.07 159.9 -129.72 160.33 -117.49 161.23 -103.44 162.59 -87.61 164.39 -70.13 166.69 -51.04 169.59 -30.4 173.27 -8.16 177.94 15.87 183.74 41.9 190.67 70.1 198.61 100.56 207.34 133.23 216.68 168.03 226.52 204.9 236.83 -50.9 -22.25zm0 138.68l-30.31 0 -20.59 -22.25 50.9 22.25z"/>
   </g>
   <path class="fil1" d="M2333.52 5278.13l-1586.96 0 208.4 -325.88 1044.06 0 0 -343.32 -824.51 0 207 -323.69 952.01 0 0 323.69 89.84 0 305.13 -2847.35 -75.16 0 57.79 -71.6c-49.01,-45.62 -79.67,-110.67 -79.67,-182.89 0,-125.99 93.3,-230.2 214.56,-247.34l10.75 -41.83 24.52 -95.43 24.52 95.43 10.75 41.83c121.26,17.15 214.56,121.36 214.56,247.34 0,72.22 -30.67,137.28 -79.68,182.9l57.79 71.6 -73 0 286.19 2847.35 105.37 0 0 -323.69 952.01 0 207 323.69 -824.51 0 0 343.32 1044.06 0 208.4 325.88 -1586.96 0 0 -325.88 -1094.27 0 0 325.88z"/>
   <rect class="fil1" x="838.59" y="6170.09" width="4084.29" height="399.68" rx="93.72" ry="93.72"/>
   <g>
    <path class="fil1" d="M2587.08 5019.1c73.08,0 132.32,59.24 132.32,132.32 0,73.08 -59.24,132.31 -132.32,132.31 -73.08,0 -132.32,-59.24 -132.32,-132.31 0,-73.08 59.24,-132.32 132.32,-132.32z"/>
    <path id="_1" class="fil2 str0" d="M2587.08 5019.1c73.08,0 132.32,59.24 132.32,132.32 0,73.08 -59.24,132.31 -132.32,132.31 -73.08,0 -132.32,-59.24 -132.32,-132.31 0,-73.08 59.24,-132.32 132.32,-132.32z"/>
   </g>
   <g>
    <path class="fil1" d="M3168.68 5019.1c73.08,0 132.32,59.24 132.32,132.32 0,73.08 -59.24,132.31 -132.32,132.31 -73.08,0 -132.32,-59.24 -132.32,-132.31 0,-73.08 59.24,-132.32 132.32,-132.32z"/>
    <path id="_1_0" class="fil2 str0" d="M3168.68 5019.1c73.08,0 132.32,59.24 132.32,132.32 0,73.08 -59.24,132.31 -132.32,132.31 -73.08,0 -132.32,-59.24 -132.32,-132.31 0,-73.08 59.24,-132.32 132.32,-132.32z"/>
   </g>
  </g>
 </g>
</svg>
